<?xml version="1.0" encoding="UTF-8" standalone="no"?><!DOCTYPE svg PUBLIC "-//W3C//DTD SVG 1.1//EN" "http://www.w3.org/Graphics/SVG/1.1/DTD/svg11.dtd"><svg transform="rotate(124)" width="100%" height="100%" viewBox="0 0 2500 2500" version="1.1" xmlns="http://www.w3.org/2000/svg" xmlns:xlink="http://www.w3.org/1999/xlink" xml:space="preserve" xmlns:serif="http://www.serif.com/" style="fill-rule:evenodd;clip-rule:evenodd;stroke-linejoin:round;stroke-miterlimit:2;"><path d="M1187.58,2298.23l576.678,-1000.83c45.924,-79.702 18.501,-181.694 -61.201,-227.618c-79.701,-45.924 -181.694,-18.501 -227.618,61.2l-576.678,1000.83c-45.924,79.702 -18.501,181.694 61.201,227.618c79.701,45.925 181.694,18.502 227.618,-61.2Z"/><path d="M1764.26,1128.77l-577.542,-1000.33c-45.993,-79.662 -148.009,-106.997 -227.671,-61.004c-79.662,45.993 -106.997,148.009 -61.004,227.671l577.542,1000.33c45.993,79.662 148.008,106.997 227.67,61.004c79.663,-45.993 106.998,-148.009 61.005,-227.671Z"/></svg>