<svg xmlns="http://www.w3.org/2000/svg" xml:space="preserve" style="fill-rule:evenodd;clip-rule:evenodd;stroke-linejoin:round;stroke-miterlimit:2" viewBox="0 0 2500 2500"><path d="m1187.58 2298.23 576.678-1000.83c45.924-79.702 18.501-181.694-61.201-227.618-79.701-45.924-181.694-18.501-227.618 61.2l-576.678 1000.83c-45.924 79.702-18.501 181.694 61.201 227.618 79.701 45.925 181.694 18.502 227.618-61.2Z"/><path d="M1764.26 1128.77 1186.718 128.44c-45.993-79.662-148.009-106.997-227.671-61.004S852.05 215.445 898.043 295.107l577.542 1000.33c45.993 79.662 148.008 106.997 227.67 61.004 79.663-45.993 106.998-148.009 61.005-227.671ZM1812.58 2298.23l576.678-1000.83c45.924-79.702 18.501-181.694-61.201-227.618-79.701-45.924-181.694-18.501-227.618 61.2l-576.678 1000.83c-45.924 79.702-18.501 181.694 61.201 227.618 79.701 45.925 181.694 18.502 227.618-61.2Z"/><path d="M2389.26 1128.77 1811.718 128.44c-45.993-79.662-148.009-106.997-227.671-61.004s-106.997 148.009-61.004 227.671l577.542 1000.33c45.993 79.662 148.008 106.997 227.67 61.004 79.663-45.993 106.998-148.009 61.005-227.671ZM562.581 2298.23l576.678-1000.83c45.924-79.702 18.501-181.694-61.201-227.618-79.701-45.924-181.694-18.501-227.618 61.2l-576.678 1000.83c-45.924 79.702-18.501 181.694 61.201 227.618 79.701 45.925 181.694 18.502 227.618-61.2Z"/><path d="M1139.26 1128.77 561.718 128.44C515.725 48.778 413.709 21.443 334.047 67.436S227.05 215.445 273.043 295.107l577.542 1000.33c45.993 79.662 148.008 106.997 227.67 61.004 79.663-45.993 106.998-148.009 61.005-227.671Z"/></svg>