<?xml version="1.0" encoding="UTF-8" standalone="no"?><!DOCTYPE svg PUBLIC "-//W3C//DTD SVG 1.1//EN" "http://www.w3.org/Graphics/SVG/1.1/DTD/svg11.dtd"><svg width="100%" height="100%" viewBox="0 0 2500 2500" version="1.1" xmlns="http://www.w3.org/2000/svg" xmlns:xlink="http://www.w3.org/1999/xlink" xml:space="preserve" xmlns:serif="http://www.serif.com/" style="fill-rule:evenodd;clip-rule:evenodd;stroke-linejoin:round;stroke-miterlimit:2;"><g><path d="M1010.24,1815.45l-0.997,-1155.08c-0.08,-91.985 -74.825,-166.602 -166.811,-166.522c-91.986,0.079 -166.602,74.824 -166.523,166.81l0.997,1155.08c0.08,91.986 74.825,166.603 166.811,166.523c91.986,-0.079 166.602,-74.824 166.523,-166.81Z"/><path d="M983.565,569.309l-222.438,-385.274c-45.993,-79.662 -148.009,-106.997 -227.671,-61.004c-79.662,45.993 -106.997,148.009 -61.004,227.671l222.437,385.273c45.993,79.663 148.009,106.998 227.671,61.005c79.662,-45.993 106.998,-148.009 61.005,-227.671Z"/><path d="M766.366,2294.7l222.105,-385.466c45.924,-79.701 18.501,-181.694 -61.2,-227.618c-79.702,-45.924 -181.694,-18.501 -227.619,61.201l-222.105,385.465c-45.924,79.702 -18.501,181.694 61.201,227.618c79.702,45.924 181.694,18.501 227.618,-61.2Z"/></g><g><path d="M1426.9,662.876l0.997,1155.08c0.079,91.985 74.824,166.602 166.81,166.522c91.986,-0.079 166.602,-74.824 166.523,-166.81l-0.997,-1155.08c-0.079,-91.986 -74.825,-166.603 -166.81,-166.523c-91.986,0.079 -166.603,74.824 -166.523,166.81Z"/><path d="M1453.57,1909.02l222.437,385.274c45.993,79.662 148.009,106.997 227.671,61.004c79.662,-45.993 106.998,-148.009 61.005,-227.671l-222.438,-385.273c-45.993,-79.662 -148.009,-106.998 -227.671,-61.005c-79.662,45.993 -106.997,148.009 -61.004,227.671Z"/><path d="M1670.77,183.627l-222.105,385.466c-45.924,79.701 -18.501,181.694 61.201,227.618c79.702,45.924 181.694,18.501 227.618,-61.201l222.105,-385.465c45.924,-79.702 18.501,-181.694 -61.201,-227.618c-79.701,-45.924 -181.694,-18.501 -227.618,61.2Z"/></g></svg>