<?xml version="1.0" encoding="UTF-8" standalone="no"?><!DOCTYPE svg PUBLIC "-//W3C//DTD SVG 1.1//EN" "http://www.w3.org/Graphics/SVG/1.1/DTD/svg11.dtd"><svg transform="rotate(138)" width="100%" height="100%" viewBox="0 0 2500 2500" version="1.1" xmlns="http://www.w3.org/2000/svg" xmlns:xlink="http://www.w3.org/1999/xlink" xml:space="preserve" xmlns:serif="http://www.serif.com/" style="fill-rule:evenodd;clip-rule:evenodd;stroke-linejoin:round;stroke-miterlimit:2;"><g><path d="M1824.02,1451.66l-1155.08,0.997c-91.986,0.079 -166.602,74.824 -166.523,166.81c0.079,91.986 74.825,166.602 166.81,166.523l1155.08,-0.997c91.986,-0.079 166.602,-74.825 166.523,-166.81c-0.08,-91.986 -74.825,-166.603 -166.811,-166.523Z"/><path d="M577.88,1478.33l-385.273,222.437c-79.662,45.993 -106.997,148.009 -61.005,227.671c45.993,79.662 148.009,106.998 227.671,61.005l385.274,-222.438c79.662,-45.993 106.997,-148.009 61.004,-227.671c-45.993,-79.662 -148.009,-106.997 -227.671,-61.004Z"/><path d="M2303.27,1695.53l-385.465,-222.105c-79.702,-45.924 -181.694,-18.501 -227.618,61.201c-45.925,79.702 -18.501,181.694 61.2,227.618l385.465,222.105c79.702,45.924 181.695,18.501 227.619,-61.201c45.924,-79.701 18.501,-181.694 -61.201,-227.618Z"/></g><g><path d="M671.448,1035l1155.08,-0.997c91.986,-0.08 166.602,-74.825 166.523,-166.811c-0.08,-91.986 -74.825,-166.602 -166.811,-166.523l-1155.08,0.997c-91.986,0.08 -166.602,74.825 -166.523,166.811c0.079,91.986 74.825,166.602 166.811,166.523Z"/><path d="M1917.59,1008.33l385.273,-222.438c79.662,-45.993 106.997,-148.009 61.004,-227.671c-45.993,-79.662 -148.009,-106.997 -227.671,-61.004l-385.273,222.437c-79.662,45.993 -106.997,148.009 -61.004,227.671c45.993,79.662 148.008,106.998 227.671,61.005Z"/><path d="M192.199,791.128l385.465,222.105c79.702,45.924 181.694,18.501 227.618,-61.2c45.924,-79.702 18.501,-181.694 -61.201,-227.619l-385.465,-222.105c-79.702,-45.924 -181.694,-18.501 -227.618,61.201c-45.924,79.702 -18.501,181.694 61.201,227.618Z"/></g></svg>